<svg xmlns="http://www.w3.org/2000/svg" version="1.1" xmlns:xlink="http://www.w3.org/1999/xlink" width="200" height="200"><svg width="200" height="200" viewBox="0 0 52.916669 52.916665" version="1.1" id="SvgjsSvg1070" inkscape:version="1.1.2 (b8e25be833, 2022-02-05)" sodipodi:docname="ultro_circle_v2.svg" xmlns:inkscape="http://www.inkscape.org/namespaces/inkscape" xmlns:sodipodi="http://sodipodi.sourceforge.net/DTD/sodipodi-0.dtd" xmlns="http://www.w3.org/2000/svg" xmlns:svg="http://www.w3.org/2000/svg">
  <sodipodi:namedview id="SvgjsSodipodi:namedview1069" pagecolor="#505050" bordercolor="#eeeeee" borderopacity="1" inkscape:pageshadow="0" inkscape:pageopacity="0" inkscape:pagecheckerboard="0" inkscape:document-units="mm" showgrid="false" fit-margin-top="0" fit-margin-left="0" fit-margin-right="0" fit-margin-bottom="0" units="px" width="200px" inkscape:zoom="2.8436027" inkscape:cx="-1.9341661" inkscape:cy="101.80747" inkscape:window-width="1920" inkscape:window-height="991" inkscape:window-x="-9" inkscape:window-y="-9" inkscape:window-maximized="1" inkscape:current-layer="layer1" height="200px"></sodipodi:namedview>
  <defs id="SvgjsDefs1068"></defs>
  <g inkscape:label="Layer 1" inkscape:groupmode="layer" id="SvgjsG1067" transform="translate(-1.1853037e-7,-1.1361488e-5)">
    <g style="fill:none;stroke:none;stroke-linecap:square;stroke-miterlimit:10" id="SvgjsG1066" transform="matrix(0.3544257,0,0,0.35441048,-8.9842374,46.990626)">
      <g transform="matrix(1.2820513,0,0,1.2820513,-27.441456,-1357.228)" id="SvgjsG1065">
        <g transform="translate(-47.668664,44.710103)" id="SvgjsG1064">
          <path fill="#e6002a" d="m 105.9,1009.91 c 10.812,10.82 24.735,17.06 41.173,17.06 16.438,0 30.361,-6.24 41.173,-17.06 10.812,-10.808 17.055,-24.733 17.055,-41.172 0,-15.812 -5.738,-30.128 -17.054,-41.173 -11.046,-11.316 -25.362,-17.056 -41.174,-17.056 -16.438,0 -30.362,6.243 -41.173,17.055 -10.812,10.812 -17.055,24.736 -17.055,41.174 0,16.439 6.243,30.364 17.055,41.172 z" fill-rule="evenodd" clip-path="url(#p.0)" id="SvgjsPath1063"></path>
          <g id="SvgjsG1062" transform="matrix(0.170551,0,0,0.164286,121.97625,816.9427)">
            <path fill="none" stroke="#000000" paint-order="fill stroke markers" d="m -36.747,791.546 c -10.579,20.419 -16.102,43.08 -16.102,66.076" stroke-opacity="1" stroke-linecap="round" stroke-linejoin="round" stroke-miterlimit="10" stroke-width="2.5" id="SvgjsPath1061" style="fill:#ffffff;fill-opacity:1;stroke:#ffffff;stroke-opacity:1"></path>
            <path fill="none" stroke="#000000" paint-order="fill stroke markers" d="m 347.151,857.622 c 0,-22.996 -5.522,-45.657 -16.101,-66.076" stroke-opacity="1" stroke-linecap="round" stroke-linejoin="round" stroke-miterlimit="10" stroke-width="2.5" id="SvgjsPath1060" style="fill:#ffffff;fill-opacity:1;stroke:#ffffff;stroke-opacity:1"></path>
            <path fill="none" stroke="#000000" paint-order="fill stroke markers" d="m -52.849,1062.62 c 0,6.41 2.544,12.55 7.072,17.07" stroke-opacity="1" stroke-linecap="round" stroke-linejoin="round" stroke-miterlimit="10" stroke-width="2.5" id="SvgjsPath1059" style="fill:#ffffff;fill-opacity:1;stroke:#ffffff;stroke-opacity:1"></path>
            <path fill="none" stroke="#000000" paint-order="fill stroke markers" d="m 15.08,1140.55 c 4.528,4.53 10.669,7.07 17.071,7.07" stroke-opacity="1" stroke-linecap="round" stroke-linejoin="round" stroke-miterlimit="10" stroke-width="2.5" id="SvgjsPath1058" style="fill:#ffffff;fill-opacity:1;stroke:#ffffff;stroke-opacity:1"></path>
            <path fill="none" stroke="#000000" paint-order="fill stroke markers" d="m 262.151,1147.62 c 6.403,0 12.544,-2.54 17.072,-7.07" stroke-opacity="1" stroke-linecap="round" stroke-linejoin="round" stroke-miterlimit="10" stroke-width="2.5" id="SvgjsPath1057" style="fill:#ffffff;fill-opacity:1;stroke:#ffffff;stroke-opacity:1"></path>
            <path fill="none" stroke="#000000" paint-order="fill stroke markers" d="m 340.08,1079.69 c 4.528,-4.52 7.071,-10.66 7.071,-17.07" stroke-opacity="1" stroke-linecap="round" stroke-linejoin="round" stroke-miterlimit="10" stroke-width="2.5" id="SvgjsPath1056" style="fill:#ffffff;fill-opacity:1;stroke:#ffffff;stroke-opacity:1"></path>
            <path fill="none" stroke="#000000" paint-order="fill stroke markers" d="M 22.151,677.872 V 1041.56" stroke-opacity="1" stroke-linecap="round" stroke-linejoin="round" stroke-miterlimit="10" stroke-width="2.5" id="SvgjsPath1055" style="fill:#ffffff;fill-opacity:1;stroke:#ffffff;stroke-opacity:1"></path>
            <path fill="none" stroke="#000000" paint-order="fill stroke markers" d="m 22.151,1041.56 31.067,31.06" stroke-opacity="1" stroke-linecap="round" stroke-linejoin="round" stroke-miterlimit="10" stroke-width="2.5" id="SvgjsPath1054" style="fill:#ffffff;fill-opacity:1;stroke:#ffffff;stroke-opacity:1"></path>
            <path fill="none" stroke="#000000" paint-order="fill stroke markers" d="M 53.218,1072.62 H 241.085" stroke-opacity="1" stroke-linecap="round" stroke-linejoin="round" stroke-miterlimit="10" stroke-width="2.5" id="SvgjsPath1053" style="fill:#ffffff;fill-opacity:1;stroke:#ffffff;stroke-opacity:1"></path>
            <path fill="none" stroke="#000000" paint-order="fill stroke markers" d="m 241.085,1072.62 31.066,-31.06" stroke-opacity="1" stroke-linecap="round" stroke-linejoin="round" stroke-miterlimit="10" stroke-width="2.5" id="SvgjsPath1052" style="fill:#ffffff;fill-opacity:1;stroke:#ffffff;stroke-opacity:1"></path>
            <path fill="none" stroke="#000000" paint-order="fill stroke markers" d="M 272.151,1041.56 V 677.872" stroke-opacity="1" stroke-linecap="round" stroke-linejoin="round" stroke-miterlimit="10" stroke-width="2.5" id="SvgjsPath1051" style="fill:#ffffff;fill-opacity:1;stroke:#ffffff;stroke-opacity:1"></path>
            <path fill="none" stroke="#000000" paint-order="fill stroke markers" d="M -36.747,791.546 22.151,677.872" stroke-opacity="1" stroke-linecap="round" stroke-linejoin="round" stroke-miterlimit="10" stroke-width="2.5" id="SvgjsPath1050" style="fill:#ffffff;fill-opacity:1;stroke:#ffffff;stroke-opacity:1"></path>
            <path fill="none" stroke="#000000" paint-order="fill stroke markers" d="M 331.05,791.546 272.151,677.872" stroke-opacity="1" stroke-linecap="round" stroke-linejoin="round" stroke-miterlimit="10" stroke-width="2.5" id="SvgjsPath1049" style="fill:#ffffff;fill-opacity:1;stroke:#ffffff;stroke-opacity:1"></path>
            <path fill="none" stroke="#000000" paint-order="fill stroke markers" d="M -52.849,857.622 V 1062.62" stroke-opacity="1" stroke-linecap="round" stroke-linejoin="round" stroke-miterlimit="10" stroke-width="2.5" id="SvgjsPath1048" style="fill:#ffffff;fill-opacity:1;stroke:#ffffff;stroke-opacity:1"></path>
            <path fill="none" stroke="#000000" paint-order="fill stroke markers" d="m -45.777,1079.69 60.857,60.86" stroke-opacity="1" stroke-linecap="round" stroke-linejoin="round" stroke-miterlimit="10" stroke-width="2.5" id="SvgjsPath1047" style="fill:#ffffff;fill-opacity:1;stroke:#ffffff;stroke-opacity:1"></path>
            <path fill="none" stroke="#000000" paint-order="fill stroke markers" d="m 32.151,1147.62 h 230" stroke-opacity="1" stroke-linecap="round" stroke-linejoin="round" stroke-miterlimit="10" stroke-width="2.5" id="SvgjsPath1046" style="fill:#ffffff;fill-opacity:1;stroke:#ffffff;stroke-opacity:1"></path>
            <path fill="none" stroke="#000000" paint-order="fill stroke markers" d="m 279.223,1140.55 60.857,-60.86" stroke-opacity="1" stroke-linecap="round" stroke-linejoin="round" stroke-miterlimit="10" stroke-width="2.5" id="SvgjsPath1045" style="fill:#ffffff;fill-opacity:1;stroke:#ffffff;stroke-opacity:1"></path>
            <path fill="none" stroke="#000000" paint-order="fill stroke markers" d="M 347.151,1062.62 V 857.622" stroke-opacity="1" stroke-linecap="round" stroke-linejoin="round" stroke-miterlimit="10" stroke-width="2.5" id="SvgjsPath1044" style="fill:#ffffff;fill-opacity:1;stroke:#ffffff;stroke-opacity:1"></path>
            <path style="fill:#ffffff;fill-opacity:1;stroke:#ffffff;stroke-width:0.25;stroke-opacity:1" id="SvgjsPath1043" d=""></path>
            <path style="fill:#ffffff;fill-opacity:1;stroke:#ffffff;stroke-width:0.707107;stroke-opacity:1" d="m 273.354,684.311 c -0.847,13.53 -0.143,27.406 -0.396,41.068 -0.106,105.607 -0.211,211.215 -0.317,316.821 -10.288,10.3 -20.577,20.59 -30.865,30.89 -63.136,0 -126.272,0 -189.408,0 C 42.08,1062.79 31.791,1052.5 21.503,1042.2 21.384,923.239 21.265,804.278 21.146,685.316 c -3.011,-2.56 -4.148,5.782 -6.112,7.706 -18.061,35.463 -37.062,70.46 -54.4,106.284 -7.69,16.589 -12.424,34.714 -12.138,53.083 -0.849,66.668 -0.216,133.349 -0.414,200.021 0.179,7.89 -1.466,16.86 4.117,23.35 16.587,18.37 34.568,35.45 52.067,52.94 5.989,5.18 10.887,11.94 17.862,15.82 7.242,3.63 15.687,1.62 23.462,2.33 73.915,0.33 147.86,0.13 221.759,-0.08 10.593,-4.07 17.409,-13.77 25.652,-21.07 16.26,-16.51 33.314,-32.3 48.695,-49.64 3.328,-4.31 5.681,-9.46 4.719,-15.02 -0.186,-71.032 0.431,-142.068 -0.48,-213.092 -0.371,-15.309 -4.721,-30.33 -10.314,-44.486 -19.394,-40.043 -40.409,-79.274 -60.735,-118.846 -0.446,-0.631 -0.911,-0.559 -1.532,-0.305 z" id="SvgjsPath1042"></path>
            <path style="fill:#ffffff;fill-opacity:1;stroke:#ffffff;stroke-width:0.0220971;stroke-opacity:1" d="m 273.161,682.141 c -0.444,0.123 -0.754,0.567 -0.733,1.024 10e-4,0.434 -0.025,0.871 0.015,1.304 0.096,0.487 0.588,0.857 1.083,0.79 0.239,-0.026 0.456,-0.142 0.693,-0.184 0.485,-0.133 0.824,-0.661 0.711,-1.156 -0.069,-0.333 -0.278,-0.615 -0.419,-0.92 -0.16,-0.32 -0.333,-0.683 -0.695,-0.814 -0.205,-0.092 -0.439,-0.096 -0.655,-0.044 z" id="SvgjsPath1041"></path>
            <path style="fill:#ffffff;fill-opacity:1;stroke:#ffffff;stroke-width:0.0110485;stroke-opacity:1" d="m 20.785,682.041 c -0.352,0.036 -0.667,0.272 -0.811,0.593 -0.306,0.594 -0.62,1.184 -0.918,1.782 -0.17,0.372 -0.08,0.842 0.218,1.123 0.207,0.205 0.502,0.297 0.789,0.289 0.209,0.033 0.359,0.208 0.566,0.248 0.427,0.126 0.923,-0.081 1.133,-0.474 0.129,-0.211 0.137,-0.464 0.131,-0.704 0.002,-0.645 0.008,-1.29 -0.006,-1.934 -0.023,-0.446 -0.383,-0.844 -0.823,-0.912 -0.092,-0.019 -0.187,-0.018 -0.28,-0.011 z" id="SvgjsPath1040"></path>
          </g>
        </g>
      </g>
    </g>
  </g>
</svg><style>@media (prefers-color-scheme: light) { :root { filter: none; } }
@media (prefers-color-scheme: dark) { :root { filter: none; } }
</style></svg>