<?xml version="1.0" encoding="utf-8"?>
<svg version="1.1" fill="none" stroke="none" stroke-linecap="square" stroke-miterlimit="10" xmlns="http://www.w3.org/2000/svg" width="400px" height="179px" viewBox="0 -179.035 400 179.035" xmlns:bx="https://boxy-svg.com" preserveAspectRatio="none"><defs/><clipPath id="p.0"><path d="M -22.702 38.782 L 625.532 38.782 L 625.532 1578.67 L -22.702 1578.67 L -22.702 38.782 Z" clip-rule="nonzero"/></clipPath><g transform="matrix(1.172543, 0, 0, 1.172543, -25.097504, -1256.590961)" style="" id="object-0"><g transform="matrix(1, 0, 0, 1, -47.668664, 44.710103)" style=""><path fill="#781212" d="M 69.073 1024.862 L 84.355 995.361 C 87.84 1003.565 92.82 1010.972 98.833 1016.985 C 101.712 1019.864 104.911 1022.507 108.364 1024.862 L 69.073 1024.862 Z M 147.073 874.28 L 161.508 902.147 C 156.761 901.074 151.915 900.509 147.078 900.509 C 142.187 900.509 137.352 901.063 132.662 902.101 L 147.073 874.28 Z M 225.073 1024.862 L 185.792 1024.862 C 189.245 1022.507 192.444 1019.864 195.323 1016.985 C 201.333 1010.974 206.312 1003.571 209.797 995.37 L 225.073 1024.862 Z" fill-rule="evenodd" clip-path="url(#p.0)" style=""/><path fill="#e6002a" d="M 105.9 1009.91 C 116.712 1020.73 130.635 1026.97 147.073 1026.97 C 163.511 1026.97 177.434 1020.73 188.246 1009.91 C 199.058 999.102 205.301 985.177 205.301 968.738 C 205.301 952.926 199.563 938.61 188.247 927.565 C 177.201 916.249 162.885 910.509 147.073 910.509 C 130.635 910.509 116.711 916.752 105.9 927.564 C 95.088 938.376 88.845 952.3 88.845 968.738 C 88.845 985.177 95.088 999.102 105.9 1009.91 Z" fill-rule="evenodd" clip-path="url(#p.0)" style=""/><g id="svg20" style="" transform="matrix(0.170551, 0, 0, 0.164286, 121.976252, 816.9427)"><path fill="none" stroke="#000000" paint-order="fill stroke markers" d="M -36.747 791.546 C -47.326 811.965 -52.849 834.626 -52.849 857.622" stroke-opacity="1" stroke-linecap="round" stroke-linejoin="round" stroke-miterlimit="10" stroke-width="2.5" id="path2" style="fill:#ffffff;fill-opacity:1;stroke:#ffffff;stroke-opacity:1"/><path fill="none" stroke="#000000" paint-order="fill stroke markers" d="M 347.151 857.622 C 347.151 834.626 341.629 811.965 331.05 791.546" stroke-opacity="1" stroke-linecap="round" stroke-linejoin="round" stroke-miterlimit="10" stroke-width="2.5" id="path3" style="fill:#ffffff;fill-opacity:1;stroke:#ffffff;stroke-opacity:1"/><path fill="none" stroke="#000000" paint-order="fill stroke markers" d="M -52.849 1062.62 C -52.849 1069.03 -50.305 1075.17 -45.777 1079.69" stroke-opacity="1" stroke-linecap="round" stroke-linejoin="round" stroke-miterlimit="10" stroke-width="2.5" id="path4" style="fill:#ffffff;fill-opacity:1;stroke:#ffffff;stroke-opacity:1"/><path fill="none" stroke="#000000" paint-order="fill stroke markers" d="M 15.08 1140.55 C 19.608 1145.08 25.749 1147.62 32.151 1147.62" stroke-opacity="1" stroke-linecap="round" stroke-linejoin="round" stroke-miterlimit="10" stroke-width="2.5" id="path5" style="fill:#ffffff;fill-opacity:1;stroke:#ffffff;stroke-opacity:1"/><path fill="none" stroke="#000000" paint-order="fill stroke markers" d="M 262.151 1147.62 C 268.554 1147.62 274.695 1145.08 279.223 1140.55" stroke-opacity="1" stroke-linecap="round" stroke-linejoin="round" stroke-miterlimit="10" stroke-width="2.5" id="path6" style="fill:#ffffff;fill-opacity:1;stroke:#ffffff;stroke-opacity:1"/><path fill="none" stroke="#000000" paint-order="fill stroke markers" d="M 340.08 1079.69 C 344.608 1075.17 347.151 1069.03 347.151 1062.62" stroke-opacity="1" stroke-linecap="round" stroke-linejoin="round" stroke-miterlimit="10" stroke-width="2.5" id="path7" style="fill:#ffffff;fill-opacity:1;stroke:#ffffff;stroke-opacity:1"/><path fill="none" stroke="#000000" paint-order="fill stroke markers" d="M 22.151 677.872 L 22.151 1041.56" stroke-opacity="1" stroke-linecap="round" stroke-linejoin="round" stroke-miterlimit="10" stroke-width="2.5" id="path8" style="fill:#ffffff;fill-opacity:1;stroke:#ffffff;stroke-opacity:1"/><path fill="none" stroke="#000000" paint-order="fill stroke markers" d="M 22.151 1041.56 L 53.218 1072.62" stroke-opacity="1" stroke-linecap="round" stroke-linejoin="round" stroke-miterlimit="10" stroke-width="2.5" id="path9" style="fill:#ffffff;fill-opacity:1;stroke:#ffffff;stroke-opacity:1"/><path fill="none" stroke="#000000" paint-order="fill stroke markers" d="M 53.218 1072.62 L 241.085 1072.62" stroke-opacity="1" stroke-linecap="round" stroke-linejoin="round" stroke-miterlimit="10" stroke-width="2.5" id="path10" style="fill:#ffffff;fill-opacity:1;stroke:#ffffff;stroke-opacity:1"/><path fill="none" stroke="#000000" paint-order="fill stroke markers" d="M 241.085 1072.62 L 272.151 1041.56" stroke-opacity="1" stroke-linecap="round" stroke-linejoin="round" stroke-miterlimit="10" stroke-width="2.5" id="path11" style="fill:#ffffff;fill-opacity:1;stroke:#ffffff;stroke-opacity:1"/><path fill="none" stroke="#000000" paint-order="fill stroke markers" d="M 272.151 1041.56 L 272.151 677.872" stroke-opacity="1" stroke-linecap="round" stroke-linejoin="round" stroke-miterlimit="10" stroke-width="2.5" id="path12" style="fill:#ffffff;fill-opacity:1;stroke:#ffffff;stroke-opacity:1"/><path fill="none" stroke="#000000" paint-order="fill stroke markers" d="M -36.747 791.546 L 22.151 677.872" stroke-opacity="1" stroke-linecap="round" stroke-linejoin="round" stroke-miterlimit="10" stroke-width="2.5" id="path13" style="fill:#ffffff;fill-opacity:1;stroke:#ffffff;stroke-opacity:1"/><path fill="none" stroke="#000000" paint-order="fill stroke markers" d="M 331.05 791.546 L 272.151 677.872" stroke-opacity="1" stroke-linecap="round" stroke-linejoin="round" stroke-miterlimit="10" stroke-width="2.5" id="path14" style="fill:#ffffff;fill-opacity:1;stroke:#ffffff;stroke-opacity:1"/><path fill="none" stroke="#000000" paint-order="fill stroke markers" d="M -52.849 857.622 L -52.849 1062.62" stroke-opacity="1" stroke-linecap="round" stroke-linejoin="round" stroke-miterlimit="10" stroke-width="2.5" id="path15" style="fill:#ffffff;fill-opacity:1;stroke:#ffffff;stroke-opacity:1"/><path fill="none" stroke="#000000" paint-order="fill stroke markers" d="M -45.777 1079.69 L 15.08 1140.55" stroke-opacity="1" stroke-linecap="round" stroke-linejoin="round" stroke-miterlimit="10" stroke-width="2.5" id="path16" style="fill:#ffffff;fill-opacity:1;stroke:#ffffff;stroke-opacity:1"/><path fill="none" stroke="#000000" paint-order="fill stroke markers" d="M 32.151 1147.62 L 262.151 1147.62" stroke-opacity="1" stroke-linecap="round" stroke-linejoin="round" stroke-miterlimit="10" stroke-width="2.5" id="path17" style="fill:#ffffff;fill-opacity:1;stroke:#ffffff;stroke-opacity:1"/><path fill="none" stroke="#000000" paint-order="fill stroke markers" d="M 279.223 1140.55 L 340.08 1079.69" stroke-opacity="1" stroke-linecap="round" stroke-linejoin="round" stroke-miterlimit="10" stroke-width="2.5" id="path18" style="fill:#ffffff;fill-opacity:1;stroke:#ffffff;stroke-opacity:1"/><path fill="none" stroke="#000000" paint-order="fill stroke markers" d="M 347.151 1062.62 L 347.151 857.622" stroke-opacity="1" stroke-linecap="round" stroke-linejoin="round" stroke-miterlimit="10" stroke-width="2.5" id="path19" style="fill:#ffffff;fill-opacity:1;stroke:#ffffff;stroke-opacity:1"/><path style="fill:#ffffff;fill-opacity:1;stroke-width:0.25;stroke:#ffffff;stroke-opacity:1" id="path40"/><path style="fill:#ffffff;fill-opacity:1;stroke-width:0.707107;stroke:#ffffff;stroke-opacity:1" d="M 273.354 684.311 C 272.507 697.841 273.211 711.717 272.958 725.379 C 272.852 830.986 272.747 936.594 272.641 1042.2 C 262.353 1052.5 252.064 1062.79 241.776 1073.09 C 178.64 1073.09 115.504 1073.09 52.368 1073.09 C 42.08 1062.79 31.791 1052.5 21.503 1042.2 C 21.384 923.239 21.265 804.278 21.146 685.316 C 18.135 682.756 16.998 691.098 15.034 693.022 C -3.027 728.485 -22.028 763.482 -39.366 799.306 C -47.056 815.895 -51.79 834.02 -51.504 852.389 C -52.353 919.057 -51.72 985.738 -51.918 1052.41 C -51.739 1060.3 -53.384 1069.27 -47.801 1075.76 C -31.214 1094.13 -13.233 1111.21 4.266 1128.7 C 10.255 1133.88 15.153 1140.64 22.128 1144.52 C 29.37 1148.15 37.815 1146.14 45.59 1146.85 C 119.505 1147.18 193.45 1146.98 267.349 1146.77 C 277.942 1142.7 284.758 1133 293.001 1125.7 C 309.261 1109.19 326.315 1093.4 341.696 1076.06 C 345.024 1071.75 347.377 1066.6 346.415 1061.04 C 346.229 990.008 346.846 918.972 345.935 847.948 C 345.564 832.639 341.214 817.618 335.621 803.462 C 316.227 763.419 295.212 724.188 274.886 684.616 C 274.44 683.985 273.975 684.057 273.354 684.311 L 273.354 684.311 Z" id="path41"/><path style="fill:#ffffff;fill-opacity:1;stroke-width:0.0220971;stroke:#ffffff;stroke-opacity:1" d="M 273.161 682.141 C 272.717 682.264 272.407 682.708 272.428 683.165 C 272.429 683.599 272.403 684.036 272.443 684.469 C 272.539 684.956 273.031 685.326 273.526 685.259 C 273.765 685.233 273.982 685.117 274.219 685.075 C 274.704 684.942 275.043 684.414 274.93 683.919 C 274.861 683.586 274.652 683.304 274.511 682.999 C 274.351 682.679 274.178 682.316 273.816 682.185 C 273.611 682.093 273.377 682.089 273.161 682.141 L 273.161 682.141 Z" id="path43"/><path style="fill:#ffffff;fill-opacity:1;stroke-width:0.0110485;stroke:#ffffff;stroke-opacity:1" d="M 20.785 682.041 C 20.433 682.077 20.118 682.313 19.974 682.634 C 19.668 683.228 19.354 683.818 19.056 684.416 C 18.886 684.788 18.976 685.258 19.274 685.539 C 19.481 685.744 19.776 685.836 20.063 685.828 C 20.272 685.861 20.422 686.036 20.629 686.076 C 21.056 686.202 21.552 685.995 21.762 685.602 C 21.891 685.391 21.899 685.138 21.893 684.898 C 21.895 684.253 21.901 683.608 21.887 682.964 C 21.864 682.518 21.504 682.12 21.064 682.052 C 20.972 682.033 20.877 682.034 20.784 682.041 L 20.785 682.041 Z" id="path44"/></g></g><g transform="matrix(1, 0, 0, 1, -47.668664, 44.710103)"><path fill="#ffffff" d="M 258.171 964.418 C 249.796 964.418 243.859 962.418 240.359 958.418 C 236.869 954.418 235.125 948.314 235.125 940.105 L 235.125 910.027 L 247.765 910.027 L 247.765 941.152 C 247.765 943.757 248.02 946.033 248.531 947.98 C 249.041 949.928 250.041 951.439 251.531 952.512 C 253.02 953.574 255.234 954.105 258.171 954.105 C 261.099 954.105 263.296 953.574 264.765 952.512 C 266.234 951.439 267.218 949.928 267.718 947.98 C 268.229 946.033 268.484 943.757 268.484 941.152 L 268.484 910.027 L 281.125 910.027 L 281.125 940.105 C 281.125 948.314 279.364 954.418 275.843 958.418 C 272.322 962.418 266.432 964.418 258.171 964.418 Z" fill-rule="nonzero" clip-path="url(#p.0)"/><path fill="#ffffff" d="M 300.392 963.465 C 297.132 963.465 294.543 963.184 292.627 962.621 C 290.71 962.059 289.335 960.965 288.502 959.34 C 287.679 957.715 287.267 955.355 287.267 952.262 L 287.267 910.027 L 299.424 910.027 L 299.424 949.059 C 299.424 950.934 299.799 952.152 300.549 952.715 C 301.299 953.267 302.684 953.543 304.705 953.543 L 308.142 953.543 L 308.142 963.465 L 300.392 963.465 Z" fill-rule="nonzero" clip-path="url(#p.0)"/><path fill="#ffffff" d="M 326.81 963.464 C 323.56 963.464 320.972 963.183 319.045 962.621 C 317.128 962.058 315.753 960.964 314.92 959.339 C 314.097 957.714 313.685 955.355 313.685 952.261 L 313.685 933.058 L 307.138 933.058 L 307.138 923.777 L 313.685 923.777 L 313.685 913.871 L 325.857 913.871 L 325.857 923.777 L 334.498 923.777 L 334.498 933.058 L 325.857 933.058 L 325.857 949.058 C 325.857 950.933 326.216 952.152 326.935 952.714 C 327.654 953.266 328.998 953.542 330.966 953.542 L 334.498 953.542 L 334.498 963.464 L 326.81 963.464 Z" fill-rule="nonzero" clip-path="url(#p.0)"/><path fill="#ffffff" d="M 340.816 963.464 L 340.816 923.777 L 350.409 923.777 L 352.581 931.058 C 353.8 927.86 355.477 925.621 357.613 924.339 C 359.748 923.058 362.337 922.501 365.378 922.667 L 365.378 934.824 C 364.732 934.72 364.17 934.657 363.691 934.636 C 363.212 934.605 362.68 934.589 362.097 934.589 C 359.159 934.589 356.904 935.282 355.331 936.667 C 353.758 938.053 352.972 940.319 352.972 943.464 L 352.972 963.464 L 340.816 963.464 Z" fill-rule="nonzero" clip-path="url(#p.0)"/><path fill="#ffffff" d="M 389.243 964.418 C 385.566 964.418 382.129 963.673 378.931 962.183 C 375.733 960.694 373.144 958.391 371.165 955.277 C 369.196 952.152 368.212 948.214 368.212 943.464 C 368.212 938.662 369.196 934.73 371.165 931.668 C 373.144 928.595 375.733 926.329 378.931 924.871 C 382.129 923.402 385.566 922.668 389.243 922.668 C 392.879 922.668 396.295 923.402 399.493 924.871 C 402.691 926.329 405.275 928.595 407.243 931.668 C 409.222 934.73 410.212 938.662 410.212 943.464 C 410.212 948.214 409.222 952.152 407.243 955.277 C 405.275 958.391 402.691 960.694 399.493 962.183 C 396.295 963.673 392.879 964.418 389.243 964.418 Z M 389.243 954.98 C 391.702 954.98 393.743 954.1 395.368 952.339 C 396.993 950.579 397.806 947.621 397.806 943.464 C 397.806 939.256 396.967 936.313 395.29 934.636 C 393.613 932.949 391.597 932.105 389.243 932.105 C 386.847 932.105 384.806 932.949 383.118 934.636 C 381.441 936.313 380.603 939.256 380.603 943.464 C 380.603 947.621 381.431 950.579 383.087 952.339 C 384.743 954.1 386.795 954.98 389.243 954.98 Z" fill-rule="nonzero" clip-path="url(#p.0)"/></g><path fill="#ffffff" d="M 195.266 1042.85 L 195.266 1024.13 L 194.875 1024.13 L 191.203 1032.55 L 188.547 1032.55 L 188.547 1032.37 L 192.734 1022.94 L 197.953 1022.94 L 197.953 1042.85 L 204.281 1042.85 L 204.281 1045.35 L 188.922 1045.35 L 188.922 1042.85 L 195.266 1042.85 Z M 208.162 1031.65 C 208.162 1028.75 208.855 1026.51 210.24 1024.91 C 211.626 1023.31 213.558 1022.51 216.037 1022.51 C 218.506 1022.51 220.433 1023.31 221.818 1024.91 C 223.204 1026.51 223.896 1028.75 223.896 1031.65 L 223.896 1036.65 C 223.896 1039.64 223.204 1041.91 221.818 1043.47 C 220.433 1045.03 218.506 1045.8 216.037 1045.8 C 213.558 1045.8 211.626 1045.03 210.24 1043.47 C 208.855 1041.91 208.162 1039.64 208.162 1036.65 L 208.162 1031.65 Z M 216.037 1043.37 C 217.766 1043.37 219.058 1042.77 219.912 1041.57 C 220.777 1040.36 221.209 1038.66 221.209 1036.46 L 221.209 1031.85 C 221.209 1030.82 221.105 1029.89 220.896 1029.05 C 220.688 1028.21 220.365 1027.49 219.928 1026.88 C 219.49 1026.27 218.943 1025.79 218.287 1025.44 C 217.641 1025.1 216.891 1024.93 216.037 1024.93 C 215.162 1024.93 214.402 1025.1 213.756 1025.44 C 213.12 1025.79 212.584 1026.27 212.146 1026.88 C 211.709 1027.49 211.381 1028.21 211.162 1029.05 C 210.954 1029.89 210.85 1030.82 210.85 1031.85 L 210.85 1036.46 C 210.85 1038.66 211.282 1040.36 212.146 1041.57 C 213.011 1042.77 214.308 1043.37 216.037 1043.37 Z M 213.99 1034.15 C 213.99 1033.6 214.188 1033.12 214.584 1032.71 C 214.99 1032.3 215.475 1032.1 216.037 1032.1 C 216.589 1032.1 217.068 1032.3 217.475 1032.71 C 217.881 1033.12 218.084 1033.6 218.084 1034.15 C 218.084 1034.7 217.881 1035.18 217.475 1035.59 C 217.068 1035.99 216.589 1036.19 216.037 1036.19 C 215.475 1036.19 214.99 1035.99 214.584 1035.59 C 214.188 1035.18 213.99 1034.7 213.99 1034.15 Z M 228.324 1034.79 L 228.324 1022.94 L 242.34 1022.94 L 242.34 1025.44 L 230.949 1025.44 L 230.949 1033.44 L 231.324 1033.44 C 231.543 1033.02 231.819 1032.61 232.152 1032.21 C 232.496 1031.81 232.897 1031.47 233.355 1031.18 C 233.814 1030.88 234.329 1030.64 234.902 1030.46 C 235.486 1030.27 236.132 1030.18 236.84 1030.18 C 237.861 1030.18 238.803 1030.35 239.668 1030.69 C 240.533 1031.04 241.272 1031.52 241.887 1032.15 C 242.501 1032.76 242.986 1033.51 243.34 1034.38 C 243.694 1035.26 243.871 1036.22 243.871 1037.29 L 243.871 1037.87 C 243.871 1038.93 243.699 1039.93 243.355 1040.88 C 243.022 1041.83 242.522 1042.67 241.855 1043.41 C 241.199 1044.15 240.376 1044.74 239.387 1045.16 C 238.408 1045.59 237.277 1045.8 235.996 1045.8 C 234.694 1045.8 233.543 1045.61 232.543 1045.22 C 231.543 1044.84 230.699 1044.31 230.012 1043.63 C 229.335 1042.94 228.819 1042.14 228.465 1041.21 C 228.111 1040.28 227.934 1039.27 227.934 1038.18 L 227.934 1037.29 L 230.621 1037.29 L 230.621 1037.99 C 230.621 1039.76 231.116 1041.09 232.105 1041.97 C 233.105 1042.86 234.402 1043.3 235.996 1043.3 C 236.85 1043.3 237.6 1043.15 238.246 1042.85 C 238.902 1042.54 239.449 1042.12 239.887 1041.6 C 240.324 1041.07 240.647 1040.46 240.855 1039.77 C 241.074 1039.07 241.184 1038.35 241.184 1037.6 L 241.184 1037.41 C 241.184 1036.76 241.069 1036.14 240.84 1035.57 C 240.621 1034.99 240.314 1034.48 239.918 1034.05 C 239.522 1033.63 239.043 1033.29 238.48 1033.05 C 237.918 1032.8 237.303 1032.68 236.637 1032.68 C 236.189 1032.68 235.777 1032.75 235.402 1032.88 C 235.038 1033.01 234.715 1033.17 234.434 1033.37 C 234.152 1033.56 233.918 1033.79 233.73 1034.05 C 233.553 1034.31 233.434 1034.56 233.371 1034.79 L 228.324 1034.79 Z M 252.986 1034.21 L 252.986 1030.51 L 260.283 1025.84 L 260.283 1025.44 L 247.611 1025.44 L 247.611 1022.94 L 262.596 1022.94 L 262.596 1027.05 L 255.299 1031.72 L 255.299 1032.1 L 256.58 1032.1 C 257.434 1032.1 258.252 1032.24 259.033 1032.52 C 259.825 1032.79 260.523 1033.2 261.127 1033.74 C 261.742 1034.27 262.236 1034.93 262.611 1035.71 C 262.986 1036.48 263.174 1037.38 263.174 1038.41 L 263.174 1038.97 C 263.174 1039.94 262.981 1040.85 262.596 1041.68 C 262.21 1042.5 261.674 1043.22 260.986 1043.84 C 260.309 1044.44 259.507 1044.92 258.58 1045.27 C 257.653 1045.63 256.643 1045.8 255.549 1045.8 C 254.288 1045.8 253.158 1045.61 252.158 1045.22 C 251.158 1044.84 250.304 1044.31 249.596 1043.65 C 248.898 1042.97 248.361 1042.18 247.986 1041.27 C 247.611 1040.37 247.424 1039.4 247.424 1038.38 L 247.424 1036.65 L 250.111 1036.65 L 250.111 1038.18 C 250.111 1038.99 250.242 1039.71 250.502 1040.35 C 250.773 1040.97 251.148 1041.51 251.627 1041.94 C 252.106 1042.38 252.674 1042.72 253.33 1042.96 C 253.997 1043.19 254.716 1043.3 255.486 1043.3 C 256.195 1043.3 256.851 1043.19 257.455 1042.96 C 258.059 1042.72 258.585 1042.39 259.033 1041.97 C 259.481 1041.56 259.835 1041.07 260.096 1040.51 C 260.356 1039.93 260.486 1039.33 260.486 1038.69 L 260.486 1038.51 C 260.486 1037.16 260.059 1036.11 259.205 1035.35 C 258.351 1034.59 257.283 1034.21 256.002 1034.21 L 252.986 1034.21 Z M 270.086 1038.82 C 270.086 1040.2 270.508 1041.32 271.352 1042.16 C 272.206 1043.01 273.393 1043.43 274.914 1043.43 C 275.643 1043.43 276.31 1043.3 276.914 1043.05 C 277.518 1042.79 278.039 1042.42 278.477 1041.94 C 278.914 1041.46 279.253 1040.9 279.492 1040.26 C 279.742 1039.6 279.867 1038.87 279.867 1038.05 L 279.867 1034.72 L 279.492 1034.72 C 279.003 1035.66 278.3 1036.4 277.383 1036.94 C 276.466 1037.47 275.399 1037.74 274.18 1037.74 C 273.128 1037.74 272.164 1037.58 271.289 1037.26 C 270.414 1036.93 269.659 1036.46 269.024 1035.84 C 268.388 1035.2 267.893 1034.43 267.539 1033.54 C 267.185 1032.64 267.008 1031.62 267.008 1030.47 L 267.008 1030.09 C 267.008 1028.98 267.201 1027.96 267.586 1027.04 C 267.971 1026.1 268.508 1025.3 269.195 1024.63 C 269.893 1023.95 270.716 1023.43 271.664 1023.07 C 272.612 1022.69 273.654 1022.51 274.789 1022.51 C 275.914 1022.51 276.951 1022.69 277.899 1023.07 C 278.857 1023.43 279.68 1023.95 280.367 1024.62 C 281.065 1025.27 281.602 1026.06 281.977 1026.99 C 282.362 1027.91 282.555 1028.91 282.555 1029.99 L 282.555 1038.05 C 282.555 1039.25 282.357 1040.32 281.961 1041.27 C 281.576 1042.22 281.034 1043.03 280.336 1043.71 C 279.638 1044.38 278.82 1044.89 277.883 1045.26 C 276.945 1045.62 275.935 1045.8 274.852 1045.8 C 273.758 1045.8 272.753 1045.64 271.836 1045.32 C 270.919 1045 270.128 1044.53 269.461 1043.93 C 268.805 1043.31 268.294 1042.58 267.93 1041.72 C 267.576 1040.86 267.399 1039.89 267.399 1038.82 L 270.086 1038.82 Z M 274.789 1024.87 C 274.018 1024.87 273.315 1025 272.68 1025.26 C 272.055 1025.51 271.518 1025.87 271.07 1026.35 C 270.623 1026.82 270.279 1027.37 270.039 1027.99 C 269.81 1028.62 269.695 1029.29 269.695 1030.02 L 269.695 1030.41 C 269.695 1031.15 269.82 1031.83 270.07 1032.44 C 270.331 1033.05 270.685 1033.57 271.133 1034.01 C 271.581 1034.44 272.112 1034.78 272.727 1035.02 C 273.352 1035.25 274.039 1035.37 274.789 1035.37 C 275.508 1035.37 276.175 1035.25 276.789 1035.01 C 277.414 1034.76 277.956 1034.42 278.414 1033.99 C 278.873 1033.56 279.227 1033.05 279.477 1032.46 C 279.737 1031.86 279.867 1031.21 279.867 1030.54 L 279.867 1029.93 C 279.867 1029.22 279.748 1028.56 279.508 1027.94 C 279.279 1027.32 278.94 1026.78 278.492 1026.32 C 278.044 1025.86 277.503 1025.51 276.867 1025.26 C 276.242 1025 275.55 1024.87 274.789 1024.87 Z" fill-rule="nonzero" clip-path="url(#p.0)"/></g></svg>