<svg xmlns="http://www.w3.org/2000/svg" width="200" height="200" fill="none" stroke-linecap="square" stroke-miterlimit="10" viewBox="0 900 200 200"><clipPath id="a"><path d="M-22.702 38.782h648.234V1578.67H-22.702V38.782Z"/></clipPath><path fill="#781212" fill-rule="evenodd" d="m69.073 1024.862 15.282-29.501c3.485 8.204 8.465 15.611 14.478 21.624 2.879 2.879 6.078 5.522 9.531 7.877H69.073Zm78-150.582 14.435 27.867c-4.747-1.073-9.593-1.638-14.43-1.638-4.891 0-9.726.554-14.416 1.592l14.411-27.821Zm78 150.582h-39.281c3.453-2.355 6.652-4.998 9.531-7.877 6.01-6.011 10.989-13.414 14.474-21.615l15.276 29.492Z" clip-path="url(#a)" transform="translate(-67.8141 -84.6879) scale(1.14103)"/><path fill="#e6002a" fill-rule="evenodd" d="M105.9 1009.91c10.812 10.82 24.735 17.06 41.173 17.06 16.438 0 30.361-6.24 41.173-17.06 10.812-10.808 17.055-24.733 17.055-41.172 0-15.812-5.738-30.128-17.054-41.173-11.046-11.316-25.362-17.056-41.174-17.056-16.438 0-30.362 6.243-41.173 17.055-10.812 10.812-17.055 24.736-17.055 41.174 0 16.439 6.243 30.364 17.055 41.172Z" clip-path="url(#a)" transform="translate(-67.8141 -84.6879) scale(1.14103)"/><path stroke="#000" stroke-linecap="round" stroke-linejoin="round" stroke-width="2.5" d="M-36.747 791.546a143.6398 143.6398 0 0 0-16.102 66.076m400 0c0-22.996-5.522-45.657-16.101-66.076M-52.849 1062.62c0 6.41 2.544 12.55 7.072 17.07m60.857 60.86c4.528 4.53 10.669 7.07 17.071 7.07m230 0c6.403 0 12.544-2.54 17.072-7.07m60.857-60.86c4.528-4.52 7.071-10.66 7.071-17.07m-325-384.748v363.688m0 0 31.067 31.06m0 0h187.867m0 0 31.066-31.06m0 0V677.872M-36.747 791.546l58.898-113.674M331.05 791.546l-58.899-113.674m-325 179.75v204.998m7.072 17.07 60.857 60.86m17.071 7.07h230m17.072-7.07 60.857-60.86m7.071-17.07V857.622" paint-order="fill stroke markers" style="fill:#fff;fill-opacity:1;stroke:#fff;stroke-opacity:1" transform="matrix(.1946 0 0 .18745 72.6104 847.465)"/><path d="M273.354 684.311c-.847 13.53-.143 27.406-.396 41.068-.106 105.607-.211 211.215-.317 316.821-10.288 10.3-20.577 20.59-30.865 30.89H52.368c-10.288-10.3-20.577-20.59-30.865-30.89l-.357-356.884c-3.011-2.56-4.148 5.782-6.112 7.706-18.061 35.463-37.062 70.46-54.4 106.284-7.69 16.589-12.424 34.714-12.138 53.083-.849 66.668-.216 133.349-.414 200.021.179 7.89-1.466 16.86 4.117 23.35 16.587 18.37 34.568 35.45 52.067 52.94 5.989 5.18 10.887 11.94 17.862 15.82 7.242 3.63 15.687 1.62 23.462 2.33 73.915.33 147.86.13 221.759-.08 10.593-4.07 17.409-13.77 25.652-21.07 16.26-16.51 33.314-32.3 48.695-49.64 3.328-4.31 5.681-9.46 4.719-15.02-.186-71.032.431-142.068-.48-213.092-.371-15.309-4.721-30.33-10.314-44.486-19.394-40.043-40.409-79.274-60.735-118.846-.446-.631-.911-.559-1.532-.305h0Z" style="fill:#fff;fill-opacity:1;stroke-width:.707107;stroke:#fff;stroke-opacity:1" transform="matrix(.1946 0 0 .18745 72.6104 847.465)"/><path d="M273.161 682.141c-.444.123-.754.567-.733 1.024.001.434-.025.871.015 1.304.096.487.588.857 1.083.79.239-.026.456-.142.693-.184.485-.133.824-.661.711-1.156-.069-.333-.278-.615-.419-.92-.16-.32-.333-.683-.695-.814-.205-.092-.439-.096-.655-.044h0Z" style="fill:#fff;fill-opacity:1;stroke-width:.0220971;stroke:#fff;stroke-opacity:1" transform="matrix(.1946 0 0 .18745 72.6104 847.465)"/><path d="M20.785 682.041c-.352.036-.667.272-.811.593-.306.594-.62 1.184-.918 1.782-.17.372-.08.842.218 1.123.207.205.502.297.789.289.209.033.359.208.566.248.427.126.923-.081 1.133-.474.129-.211.137-.464.131-.704.002-.645.008-1.29-.006-1.934-.023-.446-.383-.844-.823-.912-.092-.019-.187-.018-.28-.011h.001Z" style="fill:#fff;fill-opacity:1;stroke-width:.0110485;stroke:#fff;stroke-opacity:1" transform="matrix(.1946 0 0 .18745 72.6104 847.465)"/></svg>