<svg xmlns="http://www.w3.org/2000/svg" width="400" height="200" fill="none" stroke-linecap="square" stroke-miterlimit="10" viewBox="0 900 400 200"><clipPath id="a"><path d="M-22.702 38.782h648.234V1578.67H-22.702V38.782Z"/></clipPath><path fill="#781212" fill-rule="evenodd" d="m69.073 1024.862 15.282-29.501c3.485 8.204 8.465 15.611 14.478 21.624 2.879 2.879 6.078 5.522 9.531 7.877H69.073Zm78-150.582 14.435 27.867c-4.747-1.073-9.593-1.638-14.43-1.638-4.891 0-9.726.554-14.416 1.592l14.411-27.821Zm78 150.582h-39.281c3.453-2.355 6.652-4.998 9.531-7.877 6.01-6.011 10.989-13.414 14.474-21.615l15.276 29.492Z" clip-path="url(#a)" transform="translate(-39.6425 49.375)"/><path fill="#e6002a" fill-rule="evenodd" d="M105.9 1009.91c10.812 10.82 24.735 17.06 41.173 17.06 16.438 0 30.361-6.24 41.173-17.06 10.812-10.808 17.055-24.733 17.055-41.172 0-15.812-5.738-30.128-17.054-41.173-11.046-11.316-25.362-17.056-41.174-17.056-16.438 0-30.362 6.243-41.173 17.055-10.812 10.812-17.055 24.736-17.055 41.174 0 16.439 6.243 30.364 17.055 41.172Z" clip-path="url(#a)" transform="translate(-39.6425 49.375)"/><path stroke="#000" stroke-linecap="round" stroke-linejoin="round" stroke-width="2.5" d="M-36.747 791.546a143.6398 143.6398 0 0 0-16.102 66.076m400 0c0-22.996-5.522-45.657-16.101-66.076M-52.849 1062.62c0 6.41 2.544 12.55 7.072 17.07m60.857 60.86c4.528 4.53 10.669 7.07 17.071 7.07m230 0c6.403 0 12.544-2.54 17.072-7.07m60.857-60.86c4.528-4.52 7.071-10.66 7.071-17.07m-325-384.748v363.688m0 0 31.067 31.06m0 0h187.867m0 0 31.066-31.06m0 0V677.872M-36.747 791.546l58.898-113.674M331.05 791.546l-58.899-113.674m-325 179.75v204.998m7.072 17.07 60.857 60.86m17.071 7.07h230m17.072-7.07 60.857-60.86m7.071-17.07V857.622" paint-order="fill stroke markers" style="fill:#fff;fill-opacity:1;stroke:#fff;stroke-opacity:1" transform="matrix(.17055 0 0 .16429 83.4261 866.3177)"/><path d="M273.354 684.311c-.847 13.53-.143 27.406-.396 41.068-.106 105.607-.211 211.215-.317 316.821-10.288 10.3-20.577 20.59-30.865 30.89H52.368c-10.288-10.3-20.577-20.59-30.865-30.89l-.357-356.884c-3.011-2.56-4.148 5.782-6.112 7.706-18.061 35.463-37.062 70.46-54.4 106.284-7.69 16.589-12.424 34.714-12.138 53.083-.849 66.668-.216 133.349-.414 200.021.179 7.89-1.466 16.86 4.117 23.35 16.587 18.37 34.568 35.45 52.067 52.94 5.989 5.18 10.887 11.94 17.862 15.82 7.242 3.63 15.687 1.62 23.462 2.33 73.915.33 147.86.13 221.759-.08 10.593-4.07 17.409-13.77 25.652-21.07 16.26-16.51 33.314-32.3 48.695-49.64 3.328-4.31 5.681-9.46 4.719-15.02-.186-71.032.431-142.068-.48-213.092-.371-15.309-4.721-30.33-10.314-44.486-19.394-40.043-40.409-79.274-60.735-118.846-.446-.631-.911-.559-1.532-.305h0Z" style="fill:#fff;fill-opacity:1;stroke-width:.707107;stroke:#fff;stroke-opacity:1" transform="matrix(.17055 0 0 .16429 83.4261 866.3177)"/><path d="M273.161 682.141c-.444.123-.754.567-.733 1.024.001.434-.025.871.015 1.304.096.487.588.857 1.083.79.239-.026.456-.142.693-.184.485-.133.824-.661.711-1.156-.069-.333-.278-.615-.419-.92-.16-.32-.333-.683-.695-.814-.205-.092-.439-.096-.655-.044h0Z" style="fill:#fff;fill-opacity:1;stroke-width:.0220971;stroke:#fff;stroke-opacity:1" transform="matrix(.17055 0 0 .16429 83.4261 866.3177)"/><path d="M20.785 682.041c-.352.036-.667.272-.811.593-.306.594-.62 1.184-.918 1.782-.17.372-.08.842.218 1.123.207.205.502.297.789.289.209.033.359.208.566.248.427.126.923-.081 1.133-.474.129-.211.137-.464.131-.704.002-.645.008-1.29-.006-1.934-.023-.446-.383-.844-.823-.912-.092-.019-.187-.018-.28-.011h.001Z" style="fill:#fff;fill-opacity:1;stroke-width:.0110485;stroke:#fff;stroke-opacity:1" transform="matrix(.17055 0 0 .16429 83.4261 866.3177)"/><path fill="#fff" d="M258.171 964.418c-8.375 0-14.312-2-17.812-6-3.49-4-5.234-10.104-5.234-18.313v-30.078h12.64v31.125c0 2.605.255 4.881.766 6.828.51 1.948 1.51 3.459 3 4.532 1.489 1.062 3.703 1.593 6.64 1.593 2.928 0 5.125-.531 6.594-1.593 1.469-1.073 2.453-2.584 2.953-4.532.511-1.947.766-4.223.766-6.828v-31.125h12.641v30.078c0 8.209-1.761 14.313-5.282 18.313-3.521 4-9.411 6-17.672 6Zm42.221-.953c-3.26 0-5.849-.281-7.765-.844-1.917-.562-3.292-1.656-4.125-3.281-.823-1.625-1.235-3.985-1.235-7.078v-42.235h12.157v39.032c0 1.875.375 3.093 1.125 3.656.75.552 2.135.828 4.156.828h3.437v9.922h-7.75Zm26.418-.001c-3.25 0-5.838-.281-7.765-.843-1.917-.563-3.292-1.657-4.125-3.282-.823-1.625-1.235-3.984-1.235-7.078v-19.203h-6.547v-9.281h6.547v-9.906h12.172v9.906h8.641v9.281h-8.641v16c0 1.875.359 3.094 1.078 3.656.719.552 2.063.828 4.031.828h3.532v9.922h-7.688Zm14.006 0v-39.687h9.593l2.172 7.281c1.219-3.198 2.896-5.437 5.032-6.719 2.135-1.281 4.724-1.838 7.765-1.672v12.157c-.646-.104-1.208-.167-1.687-.188-.479-.031-1.011-.047-1.594-.047-2.938 0-5.193.693-6.766 2.078-1.573 1.386-2.359 3.652-2.359 6.797v20h-12.156Zm48.427.954c-3.677 0-7.114-.745-10.312-2.235-3.198-1.489-5.787-3.792-7.766-6.906-1.969-3.125-2.953-7.063-2.953-11.813 0-4.802.984-8.734 2.953-11.796 1.979-3.073 4.568-5.339 7.766-6.797 3.198-1.469 6.635-2.203 10.312-2.203 3.636 0 7.052.734 10.25 2.203 3.198 1.458 5.782 3.724 7.75 6.797 1.979 3.062 2.969 6.994 2.969 11.796 0 4.75-.99 8.688-2.969 11.813-1.968 3.114-4.552 5.417-7.75 6.906-3.198 1.49-6.614 2.235-10.25 2.235Zm0-9.438c2.459 0 4.5-.88 6.125-2.641 1.625-1.76 2.438-4.718 2.438-8.875 0-4.208-.839-7.151-2.516-8.828-1.677-1.687-3.693-2.531-6.047-2.531-2.396 0-4.437.844-6.125 2.531-1.677 1.677-2.515 4.62-2.515 8.828 0 4.157.828 7.115 2.484 8.875 1.656 1.761 3.708 2.641 6.156 2.641Z" clip-path="url(#a)" transform="translate(-39.6425 49.375)"/><path fill="#fff" d="M195.266 1042.85v-18.72h-.391l-3.672 8.42h-2.656v-.18l4.187-9.43h5.219v19.91h6.328v2.5h-15.359v-2.5h6.344Zm12.896-11.2c0-2.9.693-5.14 2.078-6.74 1.386-1.6 3.318-2.4 5.797-2.4 2.469 0 4.396.8 5.781 2.4 1.386 1.6 2.078 3.84 2.078 6.74v5c0 2.99-.692 5.26-2.078 6.82-1.385 1.56-3.312 2.33-5.781 2.33-2.479 0-4.411-.77-5.797-2.33-1.385-1.56-2.078-3.83-2.078-6.82v-5Zm7.875 11.72c1.729 0 3.021-.6 3.875-1.8.865-1.21 1.297-2.91 1.297-5.11v-4.61c0-1.03-.104-1.96-.313-2.8-.208-.84-.531-1.56-.968-2.17-.438-.61-.985-1.09-1.641-1.44-.646-.34-1.396-.51-2.25-.51-.875 0-1.635.17-2.281.51-.636.35-1.172.83-1.61 1.44-.437.61-.765 1.33-.984 2.17-.208.84-.312 1.77-.312 2.8v4.61c0 2.2.432 3.9 1.296 5.11.865 1.2 2.162 1.8 3.891 1.8Zm-2.047-9.22c0-.55.198-1.03.594-1.44.406-.41.891-.61 1.453-.61.552 0 1.031.2 1.438.61.406.41.609.89.609 1.44 0 .55-.203 1.03-.609 1.44-.407.4-.886.6-1.438.6-.562 0-1.047-.2-1.453-.6-.396-.41-.594-.89-.594-1.44Zm14.334.64v-11.85h14.016v2.5h-11.391v8h.375c.219-.42.495-.83.828-1.23.344-.4.745-.74 1.203-1.03.459-.3.974-.54 1.547-.72.584-.19 1.23-.28 1.938-.28 1.021 0 1.963.17 2.828.51.865.35 1.604.83 2.219 1.46.614.61 1.099 1.36 1.453 2.23.354.88.531 1.84.531 2.91v.58c0 1.06-.172 2.06-.516 3.01-.333.95-.833 1.79-1.5 2.53-.656.74-1.479 1.33-2.468 1.75-.979.43-2.11.64-3.391.64-1.302 0-2.453-.19-3.453-.58-1-.38-1.844-.91-2.531-1.59-.677-.69-1.193-1.49-1.547-2.42-.354-.93-.531-1.94-.531-3.03v-.89h2.687v.7c0 1.77.495 3.1 1.484 3.98 1 .89 2.297 1.33 3.891 1.33.854 0 1.604-.15 2.25-.45.656-.31 1.203-.73 1.641-1.25.437-.53.76-1.14.968-1.83.219-.7.329-1.42.329-2.17v-.19c0-.65-.115-1.27-.344-1.84-.219-.58-.526-1.09-.922-1.52-.396-.42-.875-.76-1.438-1-.562-.25-1.177-.37-1.843-.37-.448 0-.86.07-1.235.2-.364.13-.687.29-.968.49-.282.19-.516.42-.704.68-.177.26-.296.51-.359.74h-5.047Zm24.662-.58v-3.7l7.297-4.67v-.4h-12.672v-2.5h14.985v4.11l-7.297 4.67v.38h1.281c.854 0 1.672.14 2.453.42.792.27 1.49.68 2.094 1.22.615.53 1.109 1.19 1.484 1.97.375.77.563 1.67.563 2.7v.56c0 .97-.193 1.88-.578 2.71-.386.82-.922 1.54-1.61 2.16-.677.6-1.479 1.08-2.406 1.43-.927.36-1.937.53-3.031.53-1.261 0-2.391-.19-3.391-.58-1-.38-1.854-.91-2.562-1.57-.698-.68-1.235-1.47-1.61-2.38-.375-.9-.562-1.87-.562-2.89v-1.73h2.687v1.53c0 .81.131 1.53.391 2.17.271.62.646 1.16 1.125 1.59.479.44 1.047.78 1.703 1.02.667.23 1.386.34 2.156.34.709 0 1.365-.11 1.969-.34.604-.24 1.13-.57 1.578-.99.448-.41.802-.9 1.063-1.46.26-.58.39-1.18.39-1.82v-.18c0-1.35-.427-2.4-1.281-3.16-.854-.76-1.922-1.14-3.203-1.14h-3.016Zm17.1 4.61c0 1.38.422 2.5 1.266 3.34.854.85 2.041 1.27 3.562 1.27.729 0 1.396-.13 2-.38.604-.26 1.125-.63 1.563-1.11.437-.48.776-1.04 1.015-1.68.25-.66.375-1.39.375-2.21v-3.33h-.375c-.489.94-1.192 1.68-2.109 2.22-.917.53-1.984.8-3.203.8-1.052 0-2.016-.16-2.891-.48-.875-.33-1.63-.8-2.265-1.42-.636-.64-1.131-1.41-1.485-2.3-.354-.9-.531-1.92-.531-3.07v-.38c0-1.11.193-2.13.578-3.05.385-.94.922-1.74 1.609-2.41.698-.68 1.521-1.2 2.469-1.56.948-.38 1.99-.56 3.125-.56 1.125 0 2.162.18 3.11.56.958.36 1.781.88 2.468 1.55.698.65 1.235 1.44 1.61 2.37.385.92.578 1.92.578 3v8.06c0 1.2-.198 2.27-.594 3.22-.385.95-.927 1.76-1.625 2.44-.698.67-1.516 1.18-2.453 1.55-.938.36-1.948.54-3.031.54-1.094 0-2.099-.16-3.016-.48-.917-.32-1.708-.79-2.375-1.39-.656-.62-1.167-1.35-1.531-2.21-.354-.86-.531-1.83-.531-2.9h2.687Zm4.703-13.95c-.771 0-1.474.13-2.109.39-.625.25-1.162.61-1.61 1.09-.447.47-.791 1.02-1.031 1.64-.229.63-.344 1.3-.344 2.03v.39c0 .74.125 1.42.375 2.03.261.61.615 1.13 1.063 1.57.448.43.979.77 1.594 1.01.625.23 1.312.35 2.062.35.719 0 1.386-.12 2-.36.625-.25 1.167-.59 1.625-1.02.459-.43.813-.94 1.063-1.53.26-.6.39-1.25.39-1.92v-.61c0-.71-.119-1.37-.359-1.99-.229-.62-.568-1.16-1.016-1.62-.448-.46-.989-.81-1.625-1.06-.625-.26-1.317-.39-2.078-.39Z" clip-path="url(#a)" transform="translate(8.0262 4.665)"/></svg>